<svg width="16" height="16" viewBox="0 0 16 16" fill="none" xmlns="http://www.w3.org/2000/svg">
<path d="M7 8.295L5.705 7L5 7.705L7 9.705L11 5.705L10.295 5L7 8.295Z" fill="#97989F"/>
<path d="M8 15L4.912 13.3535C4.03167 12.8852 3.29549 12.1859 2.78246 11.3309C2.26944 10.4758 1.99894 9.49716 2 8.5V2C2.00027 1.73486 2.10571 1.48066 2.29319 1.29319C2.48067 1.10571 2.73487 1.00026 3 1H13C13.2651 1.00026 13.5193 1.10571 13.7068 1.29319C13.8943 1.48066 13.9997 1.73486 14 2V8.5C14.0011 9.49716 13.7306 10.4758 13.2175 11.3309C12.7045 12.1859 11.9683 12.8852 11.088 13.3535L8 15ZM3 2V8.5C2.99917 9.3159 3.22055 10.1166 3.64038 10.8162C4.06022 11.5158 4.66264 12.0879 5.383 12.471L8 13.8665L10.617 12.4715C11.3374 12.0883 11.9399 11.5162 12.3597 10.8165C12.7796 10.1168 13.0009 9.31599 13 8.5V2H3Z" fill="#97989F"/>
</svg>
