<svg width="16" height="16" viewBox="0 0 16 16" fill="none" xmlns="http://www.w3.org/2000/svg">
<g clip-path="url(#clip0_180_494)">
<path d="M15.3333 2.00667C15.3333 2.00667 13.988 2.80134 13.24 3.02667C12.8385 2.56501 12.3048 2.2378 11.7113 2.08929C11.1178 1.94078 10.493 1.97814 9.92135 2.19631C9.34974 2.41448 8.85892 2.80294 8.51528 3.30915C8.17164 3.81536 7.99176 4.4149 7.99996 5.02667V5.69334C6.82838 5.72372 5.66748 5.46388 4.62063 4.93697C3.57379 4.41006 2.6735 3.63243 1.99996 2.67334C1.99996 2.67334 -0.666707 8.67334 5.33329 11.34C3.96031 12.272 2.32473 12.7393 0.666626 12.6733C6.66663 16.0067 14 12.6733 14 5.00667C14 4.82134 13.9813 4.63601 13.9466 4.45334C14.6266 3.78267 15.3333 2.00667 15.3333 2.00667Z" stroke="#97989F" stroke-width="1.5" stroke-linecap="round" stroke-linejoin="round"/>
</g>
<defs>
<clipPath id="clip0_180_494">
<rect width="16" height="16" fill="white"/>
</clipPath>
</defs>
</svg>
