<svg width="321" height="34" viewBox="0 0 321 34" fill="none" xmlns="http://www.w3.org/2000/svg">
<path d="M56.2812 26.9851H53.2695L47.7383 20.0476H45.0898V26.9851H42.7695V9.53589H47.2695C48.2695 9.53589 49.1055 9.59058 49.7773 9.69995C50.457 9.80933 51.1016 10.0632 51.7109 10.4617C52.3203 10.8523 52.8008 11.3562 53.1523 11.9734C53.5117 12.5906 53.6914 13.3562 53.6914 14.2703C53.6914 15.5515 53.3672 16.6218 52.7188 17.4812C52.0703 18.3406 51.1875 18.9773 50.0703 19.3914L56.2812 26.9851ZM51.2656 14.446C51.2656 13.9382 51.1758 13.489 50.9961 13.0984C50.8164 12.7 50.5391 12.3757 50.1641 12.1257C49.8359 11.907 49.4531 11.7546 49.0156 11.6687C48.5781 11.575 48.0352 11.5281 47.3867 11.5281H45.0898V18.114H47.1289C47.793 18.114 48.3906 18.0554 48.9219 17.9382C49.4531 17.821 49.9062 17.5789 50.2812 17.2117C50.6172 16.8835 50.8633 16.4929 51.0195 16.0398C51.1836 15.5867 51.2656 15.0554 51.2656 14.446ZM62.5391 27.3015C61.2734 27.3015 60.1953 27.1726 59.3047 26.9148C58.4219 26.6492 57.5898 26.325 56.8086 25.9421V23.0359H56.9727C57.7383 23.7546 58.6055 24.3132 59.5742 24.7117C60.543 25.1023 61.4766 25.2976 62.375 25.2976C63.6562 25.2976 64.625 25.032 65.2812 24.5007C65.9375 23.9617 66.2656 23.2546 66.2656 22.3796C66.2656 21.6843 66.0938 21.1179 65.75 20.6804C65.4062 20.2429 64.8594 19.9187 64.1094 19.7078C63.5703 19.5515 63.0781 19.4226 62.6328 19.321C62.1875 19.2195 61.6289 19.0828 60.957 18.9109C60.3555 18.7546 59.8164 18.5554 59.3398 18.3132C58.8633 18.071 58.4414 17.7546 58.0742 17.364C57.7148 16.9812 57.4336 16.532 57.2305 16.0164C57.0352 15.4929 56.9375 14.8914 56.9375 14.2117C56.9375 12.7976 57.4883 11.614 58.5898 10.6609C59.6914 9.69995 61.0977 9.21948 62.8086 9.21948C63.7852 9.21948 64.707 9.31714 65.5742 9.51245C66.4492 9.70776 67.2578 9.98511 68 10.3445V13.1218H67.8242C67.2695 12.614 66.5586 12.1726 65.6914 11.7976C64.8242 11.4148 63.9141 11.2234 62.9609 11.2234C61.8828 11.2234 61.0117 11.4773 60.3477 11.9851C59.6836 12.4851 59.3516 13.1453 59.3516 13.9656C59.3516 14.7078 59.5469 15.2976 59.9375 15.7351C60.3281 16.1726 60.8945 16.4929 61.6367 16.696C62.1289 16.8289 62.7305 16.9812 63.4414 17.1531C64.1523 17.3171 64.7422 17.4695 65.2109 17.6101C66.4141 17.9773 67.293 18.532 67.8477 19.2742C68.4023 20.0164 68.6797 20.9304 68.6797 22.0164C68.6797 22.696 68.5391 23.3679 68.2578 24.032C67.9844 24.696 67.5977 25.2585 67.0977 25.7195C66.5352 26.2273 65.8984 26.6179 65.1875 26.8914C64.4844 27.1648 63.6016 27.3015 62.5391 27.3015ZM83.4219 27.3015C82.1562 27.3015 81.0781 27.1726 80.1875 26.9148C79.3047 26.6492 78.4727 26.325 77.6914 25.9421V23.0359H77.8555C78.6211 23.7546 79.4883 24.3132 80.457 24.7117C81.4258 25.1023 82.3594 25.2976 83.2578 25.2976C84.5391 25.2976 85.5078 25.032 86.1641 24.5007C86.8203 23.9617 87.1484 23.2546 87.1484 22.3796C87.1484 21.6843 86.9766 21.1179 86.6328 20.6804C86.2891 20.2429 85.7422 19.9187 84.9922 19.7078C84.4531 19.5515 83.9609 19.4226 83.5156 19.321C83.0703 19.2195 82.5117 19.0828 81.8398 18.9109C81.2383 18.7546 80.6992 18.5554 80.2227 18.3132C79.7461 18.071 79.3242 17.7546 78.957 17.364C78.5977 16.9812 78.3164 16.532 78.1133 16.0164C77.918 15.4929 77.8203 14.8914 77.8203 14.2117C77.8203 12.7976 78.3711 11.614 79.4727 10.6609C80.5742 9.69995 81.9805 9.21948 83.6914 9.21948C84.668 9.21948 85.5898 9.31714 86.457 9.51245C87.332 9.70776 88.1406 9.98511 88.8828 10.3445V13.1218H88.707C88.1523 12.614 87.4414 12.1726 86.5742 11.7976C85.707 11.4148 84.7969 11.2234 83.8438 11.2234C82.7656 11.2234 81.8945 11.4773 81.2305 11.9851C80.5664 12.4851 80.2344 13.1453 80.2344 13.9656C80.2344 14.7078 80.4297 15.2976 80.8203 15.7351C81.2109 16.1726 81.7773 16.4929 82.5195 16.696C83.0117 16.8289 83.6133 16.9812 84.3242 17.1531C85.0352 17.3171 85.625 17.4695 86.0938 17.6101C87.2969 17.9773 88.1758 18.532 88.7305 19.2742C89.2852 20.0164 89.5625 20.9304 89.5625 22.0164C89.5625 22.696 89.4219 23.3679 89.1406 24.032C88.8672 24.696 88.4805 25.2585 87.9805 25.7195C87.418 26.2273 86.7812 26.6179 86.0703 26.8914C85.3672 27.1648 84.4844 27.3015 83.4219 27.3015ZM96.9688 27.2781C96.0703 27.2781 95.2461 27.1414 94.4961 26.8679C93.7461 26.5867 93.1016 26.1648 92.5625 25.6023C92.0234 25.0398 91.6055 24.3328 91.3086 23.4812C91.0117 22.6218 90.8633 21.614 90.8633 20.4578C90.8633 19.3093 91.0156 18.3171 91.3203 17.4812C91.6328 16.6453 92.0469 15.9421 92.5625 15.3718C93.0781 14.8015 93.7188 14.364 94.4844 14.0593C95.2578 13.7468 96.0859 13.5906 96.9688 13.5906C97.6875 13.5906 98.3789 13.6921 99.043 13.8953C99.7148 14.0984 100.312 14.3328 100.836 14.5984V17.071H100.707C100.551 16.9382 100.348 16.7859 100.098 16.614C99.8555 16.4421 99.5586 16.2664 99.207 16.0867C98.9023 15.9304 98.543 15.7937 98.1289 15.6765C97.7148 15.5593 97.3164 15.5007 96.9336 15.5007C95.793 15.5007 94.875 15.9343 94.1797 16.8015C93.4922 17.6609 93.1484 18.8796 93.1484 20.4578C93.1484 22.0046 93.4805 23.2117 94.1445 24.0789C94.8164 24.9382 95.7461 25.3679 96.9336 25.3679C97.6523 25.3679 98.3359 25.2195 98.9844 24.9226C99.6328 24.6257 100.207 24.2429 100.707 23.7742H100.836V26.2468C100.617 26.3484 100.344 26.4734 100.016 26.6218C99.6875 26.7625 99.3906 26.8679 99.125 26.9382C98.75 27.0476 98.4141 27.1296 98.1172 27.1843C97.8203 27.2468 97.4375 27.2781 96.9688 27.2781ZM113.141 26.9851H110.938V19.532C110.938 18.9304 110.906 18.3718 110.844 17.8562C110.789 17.3328 110.68 16.9148 110.516 16.6023C110.336 16.2742 110.086 16.032 109.766 15.8757C109.445 15.7117 109.008 15.6296 108.453 15.6296C107.906 15.6296 107.34 15.7781 106.754 16.075C106.176 16.364 105.609 16.7429 105.055 17.2117V26.9851H102.852V8.75073H105.055V15.3484C105.711 14.7625 106.359 14.3132 107 14.0007C107.641 13.6882 108.316 13.532 109.027 13.532C110.316 13.532 111.324 13.9578 112.051 14.8093C112.777 15.6531 113.141 16.8796 113.141 18.489V26.9851ZM127.004 20.446C127.004 22.6492 126.473 24.3523 125.41 25.5554C124.348 26.7507 122.934 27.3484 121.168 27.3484C119.348 27.3484 117.914 26.7312 116.867 25.4968C115.828 24.2546 115.309 22.571 115.309 20.446C115.309 18.2585 115.844 16.5593 116.914 15.3484C117.992 14.1375 119.41 13.532 121.168 13.532C122.934 13.532 124.348 14.1375 125.41 15.3484C126.473 16.5515 127.004 18.2507 127.004 20.446ZM124.73 20.446C124.73 18.7507 124.422 17.4929 123.805 16.6726C123.188 15.8445 122.309 15.4304 121.168 15.4304C120.02 15.4304 119.133 15.8445 118.508 16.6726C117.891 17.4929 117.582 18.7507 117.582 20.446C117.582 22.0867 117.891 23.3328 118.508 24.1843C119.133 25.0281 120.02 25.45 121.168 25.45C122.301 25.45 123.176 25.0359 123.793 24.2078C124.418 23.3718 124.73 22.1179 124.73 20.446ZM140.035 20.446C140.035 22.6492 139.504 24.3523 138.441 25.5554C137.379 26.7507 135.965 27.3484 134.199 27.3484C132.379 27.3484 130.945 26.7312 129.898 25.4968C128.859 24.2546 128.34 22.571 128.34 20.446C128.34 18.2585 128.875 16.5593 129.945 15.3484C131.023 14.1375 132.441 13.532 134.199 13.532C135.965 13.532 137.379 14.1375 138.441 15.3484C139.504 16.5515 140.035 18.2507 140.035 20.446ZM137.762 20.446C137.762 18.7507 137.453 17.4929 136.836 16.6726C136.219 15.8445 135.34 15.4304 134.199 15.4304C133.051 15.4304 132.164 15.8445 131.539 16.6726C130.922 17.4929 130.613 18.7507 130.613 20.446C130.613 22.0867 130.922 23.3328 131.539 24.1843C132.164 25.0281 133.051 25.45 134.199 25.45C135.332 25.45 136.207 25.0359 136.824 24.2078C137.449 23.3718 137.762 22.1179 137.762 20.446ZM144.547 26.9851H142.344V8.75073H144.547V26.9851ZM171.629 26.9851H166.285L161.422 20.5867H159.852V26.9851H155.492V9.53589H162.512C163.48 9.53589 164.324 9.59839 165.043 9.72339C165.762 9.84058 166.426 10.0906 167.035 10.4734C167.66 10.8718 168.156 11.3796 168.523 11.9968C168.891 12.6062 169.074 13.3835 169.074 14.3289C169.074 15.6648 168.773 16.7507 168.172 17.5867C167.57 18.4148 166.766 19.075 165.758 19.5671L171.629 26.9851ZM164.574 14.8796C164.574 14.4421 164.488 14.0671 164.316 13.7546C164.152 13.4343 163.875 13.1882 163.484 13.0164C163.211 12.8992 162.906 12.825 162.57 12.7937C162.234 12.7625 161.816 12.7468 161.316 12.7468H159.852V17.446H161.105C161.715 17.446 162.23 17.4109 162.652 17.3406C163.082 17.2625 163.445 17.1023 163.742 16.8601C164.023 16.6414 164.23 16.3796 164.363 16.075C164.504 15.7703 164.574 15.3718 164.574 14.8796ZM179.434 27.3367C176.949 27.3367 175.043 26.7429 173.715 25.5554C172.395 24.3679 171.734 22.6765 171.734 20.4812C171.734 18.3328 172.352 16.6179 173.586 15.3367C174.82 14.0554 176.547 13.4148 178.766 13.4148C180.781 13.4148 182.297 13.9578 183.312 15.0437C184.328 16.1296 184.836 17.6843 184.836 19.7078V21.1843H175.848C175.887 21.7937 176.016 22.3054 176.234 22.7195C176.453 23.1257 176.742 23.45 177.102 23.6921C177.453 23.9343 177.863 24.1101 178.332 24.2195C178.801 24.321 179.312 24.3718 179.867 24.3718C180.344 24.3718 180.812 24.321 181.273 24.2195C181.734 24.1101 182.156 23.9695 182.539 23.7976C182.875 23.6492 183.184 23.489 183.465 23.3171C183.754 23.1453 183.988 22.9929 184.168 22.8601H184.602V26.2468C184.266 26.3796 183.957 26.5046 183.676 26.6218C183.402 26.7312 183.023 26.8445 182.539 26.9617C182.094 27.0789 181.633 27.1687 181.156 27.2312C180.688 27.3015 180.113 27.3367 179.434 27.3367ZM180.793 18.7117C180.77 17.8445 180.566 17.1843 180.184 16.7312C179.809 16.2781 179.23 16.0515 178.449 16.0515C177.652 16.0515 177.027 16.2898 176.574 16.7664C176.129 17.2429 175.883 17.8914 175.836 18.7117H180.793ZM194.199 23.5515V20.8093C193.504 20.8796 192.941 20.9421 192.512 20.9968C192.082 21.0437 191.66 21.1414 191.246 21.2898C190.887 21.4148 190.605 21.6062 190.402 21.864C190.207 22.114 190.109 22.45 190.109 22.8718C190.109 23.489 190.273 23.9148 190.602 24.1492C190.938 24.3757 191.43 24.489 192.078 24.489C192.438 24.489 192.805 24.407 193.18 24.2429C193.555 24.0789 193.895 23.8484 194.199 23.5515ZM194.199 25.5906C193.918 25.825 193.664 26.0359 193.438 26.2234C193.219 26.4109 192.922 26.5984 192.547 26.7859C192.18 26.9656 191.82 27.1023 191.469 27.196C191.125 27.2898 190.641 27.3367 190.016 27.3367C188.852 27.3367 187.883 26.946 187.109 26.1648C186.344 25.3835 185.961 24.3992 185.961 23.2117C185.961 22.2351 186.156 21.446 186.547 20.8445C186.938 20.2429 187.5 19.7664 188.234 19.4148C188.977 19.0554 189.863 18.8054 190.895 18.6648C191.926 18.5242 193.035 18.4148 194.223 18.3367V18.2664C194.223 17.5398 193.953 17.0398 193.414 16.7664C192.883 16.4851 192.082 16.3445 191.012 16.3445C190.527 16.3445 189.961 16.4343 189.312 16.614C188.664 16.7859 188.031 17.0085 187.414 17.282H187.062V14.1062C187.469 13.989 188.125 13.8523 189.031 13.696C189.938 13.532 190.852 13.45 191.773 13.45C194.039 13.45 195.688 13.8289 196.719 14.5867C197.758 15.3367 198.277 16.4851 198.277 18.032V26.9851H194.199V25.5906ZM207.77 27.3367C206.684 27.3367 205.688 27.2 204.781 26.9265C203.883 26.6531 203.102 26.2312 202.438 25.6609C201.781 25.0906 201.27 24.3757 200.902 23.5164C200.535 22.6492 200.352 21.6296 200.352 20.4578C200.352 19.2 200.551 18.1296 200.949 17.2468C201.348 16.364 201.887 15.6375 202.566 15.0671C203.223 14.5203 203.992 14.1179 204.875 13.8601C205.766 13.5945 206.691 13.4617 207.652 13.4617C208.379 13.4617 209.105 13.5476 209.832 13.7195C210.559 13.8835 211.289 14.1492 212.023 14.5164V18.032H211.496C211.332 17.8757 211.129 17.7039 210.887 17.5164C210.652 17.3289 210.395 17.157 210.113 17.0007C209.816 16.8367 209.48 16.7 209.105 16.5906C208.73 16.4734 208.312 16.4148 207.852 16.4148C206.805 16.4148 205.992 16.782 205.414 17.5164C204.844 18.2429 204.559 19.2234 204.559 20.4578C204.559 21.7781 204.863 22.7625 205.473 23.4109C206.09 24.0593 206.906 24.3835 207.922 24.3835C208.438 24.3835 208.891 24.325 209.281 24.2078C209.672 24.0906 210.008 23.95 210.289 23.7859C210.562 23.6218 210.797 23.4539 210.992 23.282C211.188 23.1023 211.355 22.9421 211.496 22.8015H212.023V26.3171C211.789 26.4187 211.516 26.5359 211.203 26.6687C210.898 26.8015 210.586 26.9109 210.266 26.9968C209.867 27.1062 209.492 27.1882 209.141 27.2429C208.797 27.3054 208.34 27.3367 207.77 27.3367ZM219.008 27.2429C217.336 27.2429 216.117 26.8992 215.352 26.2117C214.594 25.5242 214.215 24.3992 214.215 22.8367V16.6843H212.645V13.825H214.215V10.0632H218.316V13.825H222.266V16.6843H218.316V21.3484C218.316 21.8093 218.32 22.2117 218.328 22.5554C218.336 22.8992 218.398 23.2078 218.516 23.4812C218.625 23.7546 218.816 23.9734 219.09 24.1375C219.371 24.2937 219.777 24.3718 220.309 24.3718C220.527 24.3718 220.812 24.325 221.164 24.2312C221.523 24.1375 221.773 24.0515 221.914 23.9734H222.266V26.8679C221.82 26.9851 221.348 27.075 220.848 27.1375C220.348 27.2078 219.734 27.2429 219.008 27.2429ZM234.57 26.9851V12.864H229.414V9.53589H244.109V12.864H238.953V26.9851H234.57ZM252.934 23.5515V20.8093C252.238 20.8796 251.676 20.9421 251.246 20.9968C250.816 21.0437 250.395 21.1414 249.98 21.2898C249.621 21.4148 249.34 21.6062 249.137 21.864C248.941 22.114 248.844 22.45 248.844 22.8718C248.844 23.489 249.008 23.9148 249.336 24.1492C249.672 24.3757 250.164 24.489 250.812 24.489C251.172 24.489 251.539 24.407 251.914 24.2429C252.289 24.0789 252.629 23.8484 252.934 23.5515ZM252.934 25.5906C252.652 25.825 252.398 26.0359 252.172 26.2234C251.953 26.4109 251.656 26.5984 251.281 26.7859C250.914 26.9656 250.555 27.1023 250.203 27.196C249.859 27.2898 249.375 27.3367 248.75 27.3367C247.586 27.3367 246.617 26.946 245.844 26.1648C245.078 25.3835 244.695 24.3992 244.695 23.2117C244.695 22.2351 244.891 21.446 245.281 20.8445C245.672 20.2429 246.234 19.7664 246.969 19.4148C247.711 19.0554 248.598 18.8054 249.629 18.6648C250.66 18.5242 251.77 18.4148 252.957 18.3367V18.2664C252.957 17.5398 252.688 17.0398 252.148 16.7664C251.617 16.4851 250.816 16.3445 249.746 16.3445C249.262 16.3445 248.695 16.4343 248.047 16.614C247.398 16.7859 246.766 17.0085 246.148 17.282H245.797V14.1062C246.203 13.989 246.859 13.8523 247.766 13.696C248.672 13.532 249.586 13.45 250.508 13.45C252.773 13.45 254.422 13.8289 255.453 14.5867C256.492 15.3367 257.012 16.4851 257.012 18.032V26.9851H252.934V25.5906ZM264.055 27.3484C263.086 27.3484 262.168 27.2429 261.301 27.032C260.441 26.821 259.73 26.575 259.168 26.2937V22.825H259.508C259.703 22.9734 259.926 23.1375 260.176 23.3171C260.426 23.4968 260.773 23.6843 261.219 23.8796C261.602 24.0593 262.031 24.2156 262.508 24.3484C262.992 24.4734 263.516 24.5359 264.078 24.5359C264.656 24.5359 265.164 24.446 265.602 24.2664C266.047 24.0867 266.27 23.8015 266.27 23.4109C266.27 23.1062 266.168 22.8757 265.965 22.7195C265.762 22.5632 265.367 22.4148 264.781 22.2742C264.469 22.196 264.074 22.114 263.598 22.0281C263.121 21.9343 262.699 21.8289 262.332 21.7117C261.301 21.3914 260.523 20.9187 260 20.2937C259.484 19.6609 259.227 18.8328 259.227 17.8093C259.227 17.2234 259.359 16.6726 259.625 16.157C259.898 15.6335 260.297 15.1687 260.82 14.7625C261.344 14.364 261.988 14.0476 262.754 13.8132C263.527 13.5789 264.398 13.4617 265.367 13.4617C266.289 13.4617 267.137 13.5554 267.91 13.7429C268.684 13.9226 269.336 14.1414 269.867 14.3992V17.7273H269.539C269.398 17.6179 269.176 17.4734 268.871 17.2937C268.566 17.1062 268.27 16.946 267.98 16.8132C267.637 16.657 267.25 16.5281 266.82 16.4265C266.398 16.325 265.965 16.2742 265.52 16.2742C264.926 16.2742 264.422 16.3757 264.008 16.5789C263.602 16.782 263.398 17.0515 263.398 17.3875C263.398 17.6843 263.5 17.9187 263.703 18.0906C263.906 18.2625 264.348 18.4304 265.027 18.5945C265.379 18.6804 265.781 18.7664 266.234 18.8523C266.695 18.9304 267.137 19.0398 267.559 19.1804C268.504 19.4851 269.219 19.9343 269.703 20.5281C270.195 21.114 270.441 21.8953 270.441 22.8718C270.441 23.489 270.297 24.0789 270.008 24.6414C269.719 25.196 269.309 25.6648 268.777 26.0476C268.215 26.4617 267.551 26.782 266.785 27.0085C266.027 27.2351 265.117 27.3484 264.055 27.3484ZM285.57 26.9851H280.695L277.133 21.2546L276.5 22.1101V26.9851H272.398V8.75073H276.5V18.9695L280.391 13.825H285.23L280.625 19.4968L285.57 26.9851ZM303.465 16.2859H299.902L298.93 20.1296H302.105V22.825H298.25L297.195 26.9851H294.477L295.52 22.825H292.543L291.5 26.9851H288.746L289.789 22.825H286.754V20.1296H290.469L291.43 16.2859H288.125V13.5906H292.098L293.117 9.53589H295.883L294.863 13.5906H297.828L298.848 9.53589H301.613L300.582 13.5906H303.465V16.2859ZM297.195 16.2625H294.172L293.188 20.1531H296.211L297.195 16.2625ZM318.746 26.9851H307.215V23.9382H310.895V14.7156H307.215V11.8679C307.754 11.8679 308.289 11.8328 308.82 11.7625C309.352 11.6921 309.777 11.5789 310.098 11.4226C310.473 11.2351 310.762 10.9851 310.965 10.6726C311.176 10.3523 311.297 9.95776 311.328 9.48901H315.148V23.9382H318.746V26.9851Z" fill="white"/>
<g clip-path="url(#clip0_3_2764)">
<path d="M18 20.2087C19.7721 20.2087 21.2087 18.7721 21.2087 17C21.2087 15.2278 19.7721 13.7913 18 13.7913C16.2279 13.7913 14.7913 15.2278 14.7913 17C14.7913 18.7721 16.2279 20.2087 18 20.2087Z" fill="#61DAFB"/>
<path d="M18 23.574C27.5089 23.574 35.2174 20.6307 35.2174 17.0001C35.2174 13.3694 27.5089 10.4261 18 10.4261C8.49108 10.4261 0.782593 13.3694 0.782593 17.0001C0.782593 20.6307 8.49108 23.574 18 23.574Z" stroke="#61DAFB"/>
<path d="M12.3068 20.287C17.0613 28.5219 23.4644 33.7261 26.6087 31.9107C29.7529 30.0954 28.4476 21.948 23.6932 13.7131C18.9387 5.47812 12.5356 0.273988 9.3913 2.08932C6.24704 3.90466 7.55237 12.052 12.3068 20.287Z" stroke="#61DAFB"/>
<path d="M12.3068 13.713C7.55238 21.948 6.24706 30.0953 9.39131 31.9107C12.5356 33.726 18.9387 28.5219 23.6932 20.2869C28.4476 12.052 29.753 3.9046 26.6087 2.08926C23.4645 0.273928 17.0613 5.47806 12.3068 13.713Z" stroke="#61DAFB"/>
</g>
<defs>
<clipPath id="clip0_3_2764">
<rect width="36" height="32.0298" fill="white" transform="translate(0 0.985107)"/>
</clipPath>
</defs>
</svg>
